REM DIRINDEX 1\4,1\2\5,1\2\6,1\3\7,1\3\8,1\3\9,1\3\10
REM DIRNAME cjc107,folder01,folder02,folder03,folder04,folder05,folder06,folder07,folder08,folder09
TITLE ""
FILE "DISC2Track04.mp3" MP3
  TRACK 01 AUDIO
    TITLE "0:"
    INDEX 01 00:00:00
  TRACK 02 AUDIO
    TITLE "7:cjc107_1268"
    INDEX 01 00:00:01
  TRACK 03 AUDIO
    TITLE "0:"
    INDEX 01 00:02:22
  TRACK 04 AUDIO
    TITLE "8:cjc107_1269"
    INDEX 01 00:03:37
  TRACK 05 AUDIO
    TITLE "0:"
    INDEX 01 00:04:42
  TRACK 06 AUDIO
    TITLE "9:cjc107_1270"
    INDEX 01 00:04:60
  TRACK 07 AUDIO
    TITLE "0:"
    INDEX 01 00:07:27
  TRACK 08 AUDIO
    TITLE "8:cjc107_1271"
    INDEX 01 00:07:74
  TRACK 09 AUDIO
    TITLE "0:"
    INDEX 01 00:09:10
  TRACK 10 AUDIO
    TITLE "9:cjc107_1272"
    INDEX 01 00:09:14
  TRACK 11 AUDIO
    TITLE "0:"
    INDEX 01 00:10:49
  TRACK 12 AUDIO
    TITLE "8:cjc107_1273"
    INDEX 01 00:11:15
  TRACK 13 AUDIO
    TITLE "0:"
    INDEX 01 00:12:40
  TRACK 14 AUDIO
    TITLE "9:cjc107_1274"
    INDEX 01 00:12:42
  TRACK 15 AUDIO
    TITLE "0:"
    INDEX 01 00:15:70
  TRACK 16 AUDIO
    TITLE "8:cjc107_1275"
    INDEX 01 00:16:44
  TRACK 17 AUDIO
    TITLE "0:"
    INDEX 01 00:17:63
  TRACK 18 AUDIO
    TITLE "9:cjc107_1276"
    INDEX 01 00:17:65
  TRACK 19 AUDIO
    TITLE "0:"
    INDEX 01 00:19:36
  TRACK 20 AUDIO
    TITLE "8:cjc107_1277"
    INDEX 01 00:20:06
  TRACK 21 AUDIO
    TITLE "0:"
    INDEX 01 00:21:31
  TRACK 22 AUDIO
    TITLE "9:cjc107_1278"
    INDEX 01 00:21:37
  TRACK 23 AUDIO
    TITLE "0:"
    INDEX 01 00:24:18
  TRACK 24 AUDIO
    TITLE "8:cjc107_1279"
    INDEX 01 00:24:65
  TRACK 25 AUDIO
    TITLE "0:"
    INDEX 01 00:26:13
  TRACK 26 AUDIO
    TITLE "9:cjc107_1280"
    INDEX 01 00:26:32
  TRACK 27 AUDIO
    TITLE "0:"
    INDEX 01 00:28:00
  TRACK 28 AUDIO
    TITLE "8:cjc107_1281"
    INDEX 01 00:28:53
  TRACK 29 AUDIO
    TITLE "0:"
    INDEX 01 00:29:60
  TRACK 30 AUDIO
    TITLE "9:cjc107_1282"
    INDEX 01 00:29:66
  TRACK 31 AUDIO
    TITLE "0:"
    INDEX 01 00:33:11
  TRACK 32 AUDIO
    TITLE "8:cjc107_1283"
    INDEX 01 00:33:62
  TRACK 33 AUDIO
    TITLE "0:"
    INDEX 01 00:35:31
  TRACK 34 AUDIO
    TITLE "9:cjc107_1284"
    INDEX 01 00:35:37
  TRACK 35 AUDIO
    TITLE "0:"
    INDEX 01 00:37:12
  TRACK 36 AUDIO
    TITLE "8:cjc107_1285"
    INDEX 01 00:37:59
  TRACK 37 AUDIO
    TITLE "0:"
    INDEX 01 00:39:51
  TRACK 38 AUDIO
    TITLE "9:cjc107_1286"
    INDEX 01 00:39:52
  TRACK 39 AUDIO
    TITLE "0:"
    INDEX 01 00:40:66
  TRACK 40 AUDIO
    TITLE "8:cjc107_1287"
    INDEX 01 00:41:40
  TRACK 41 AUDIO
    TITLE "0:"
    INDEX 01 00:42:55
  TRACK 42 AUDIO
    TITLE "9:cjc107_1288"
    INDEX 01 00:42:63
  TRACK 43 AUDIO
    TITLE "0:"
    INDEX 01 00:44:71
  TRACK 44 AUDIO
    TITLE "8:cjc107_1289"
    INDEX 01 00:45:45
  TRACK 45 AUDIO
    TITLE "0:"
    INDEX 01 00:46:62
  TRACK 46 AUDIO
    TITLE "9:cjc107_1290"
    INDEX 01 00:46:70
  TRACK 47 AUDIO
    TITLE "0:"
    INDEX 01 00:49:57
  TRACK 48 AUDIO
    TITLE "8:cjc107_1291"
    INDEX 01 00:50:29
  TRACK 49 AUDIO
    TITLE "0:"
    INDEX 01 00:51:40
  TRACK 50 AUDIO
    TITLE "9:cjc107_1292"
    INDEX 01 00:51:48
  TRACK 51 AUDIO
    TITLE "0:"
    INDEX 01 00:53:53
  TRACK 52 AUDIO
    TITLE "8:cjc107_1293"
    INDEX 01 00:54:25
  TRACK 53 AUDIO
    TITLE "0:"
    INDEX 01 00:55:71
  TRACK 54 AUDIO
    TITLE "9:cjc107_1294"
    INDEX 01 00:56:10
  TRACK 55 AUDIO
    TITLE "0:"
    INDEX 01 00:58:36
  TRACK 56 AUDIO
    TITLE "10:cjc107_1295"
    INDEX 01 01:00:08
  TRACK 57 AUDIO
    TITLE "10:cjc107_1296"
    INDEX 01 01:01:21
  TRACK 58 AUDIO
    TITLE "10:cjc107_1297"
    INDEX 01 01:06:18
  TRACK 59 AUDIO
    TITLE "10:cjc107_1298"
    INDEX 01 01:11:37
  TRACK 60 AUDIO
    TITLE "10:cjc107_1299"
    INDEX 01 01:15:64
  TRACK 61 AUDIO
    TITLE "10:cjc107_1300"
    INDEX 01 01:21:59
  TRACK 62 AUDIO
    TITLE "10:cjc107_1301"
    INDEX 01 01:26:58
  TRACK 63 AUDIO
    TITLE "0:"
    INDEX 01 01:28:45
